<svg width="20" height="21" viewBox="0 0 20 21" fill="none" xmlns="http://www.w3.org/2000/svg">
<path d="M10 0.894775C4.475 0.894775 1.45954e-06 5.36978 1.45954e-06 10.8948C-0.00113276 12.9941 0.658815 15.0404 1.88622 16.7435C3.11362 18.4465 4.84615 19.7198 6.838 20.3828C7.338 20.4698 7.525 20.1698 7.525 19.9068C7.525 19.6698 7.512 18.8828 7.512 18.0448C5 18.5078 4.35 17.4328 4.15 16.8698C4.037 16.5818 3.55 15.6948 3.125 15.4568C2.775 15.2698 2.275 14.8068 3.112 14.7948C3.9 14.7818 4.462 15.5198 4.65 15.8198C5.55 17.3318 6.988 16.9068 7.562 16.6448C7.65 15.9948 7.912 15.5578 8.2 15.3078C5.975 15.0578 3.65 14.1948 3.65 10.3698C3.65 9.28178 4.037 8.38278 4.675 7.68178C4.575 7.43178 4.225 6.40678 4.775 5.03178C4.775 5.03178 5.612 4.76978 7.525 6.05778C8.33906 5.83184 9.18017 5.71812 10.025 5.71978C10.875 5.71978 11.725 5.83178 12.525 6.05678C14.437 4.75678 15.275 5.03278 15.275 5.03278C15.825 6.40778 15.475 7.43278 15.375 7.68278C16.012 8.38278 16.4 9.26978 16.4 10.3698C16.4 14.2078 14.063 15.0578 11.838 15.3078C12.2 15.6198 12.513 16.2198 12.513 17.1578C12.513 18.4948 12.5 19.5698 12.5 19.9078C12.5 20.1698 12.688 20.4818 13.188 20.3818C15.173 19.7116 16.8979 18.4358 18.1199 16.7339C19.3419 15.0321 19.9994 12.9899 20 10.8948C20 5.36978 15.525 0.894775 10 0.894775Z" fill="#101113"/>
</svg>
