<svg viewBox="0 0 20 21" xmlns="http://www.w3.org/2000/svg">
    <path
        d="M10 0.894775C12.717 0.894775 13.056 0.904775 14.122 0.954775C15.187 1.00478 15.912 1.17178 16.55 1.41978C17.21 1.67378 17.766 2.01778 18.322 2.57278C18.8305 3.07267 19.224 3.67736 19.475 4.34478C19.722 4.98178 19.89 5.70778 19.94 6.77278C19.987 7.83878 20 8.17778 20 10.8948C20 13.6118 19.99 13.9508 19.94 15.0168C19.89 16.0818 19.722 16.8068 19.475 17.4448C19.2247 18.1126 18.8311 18.7174 18.322 19.2168C17.822 19.7251 17.2173 20.1185 16.55 20.3698C15.913 20.6168 15.187 20.7848 14.122 20.8348C13.056 20.8818 12.717 20.8948 10 20.8948C7.283 20.8948 6.944 20.8848 5.878 20.8348C4.813 20.7848 4.088 20.6168 3.45 20.3698C2.78233 20.1192 2.17753 19.7257 1.678 19.2168C1.16941 18.717 0.775931 18.1122 0.525 17.4448C0.277 16.8078 0.11 16.0818 0.0599999 15.0168C0.0129999 13.9508 0 13.6118 0 10.8948C0 8.17778 0.00999994 7.83878 0.0599999 6.77278C0.11 5.70678 0.277 4.98278 0.525 4.34478C0.775236 3.67695 1.1688 3.0721 1.678 2.57278C2.17767 2.06401 2.78243 1.6705 3.45 1.41978C4.088 1.17178 4.812 1.00478 5.878 0.954775C6.944 0.907775 7.283 0.894775 10 0.894775ZM10 5.89478C8.67392 5.89478 7.40215 6.42156 6.46447 7.35924C5.52678 8.29692 5 9.56869 5 10.8948C5 12.2209 5.52678 13.4926 6.46447 14.4303C7.40215 15.368 8.67392 15.8948 10 15.8948C11.3261 15.8948 12.5979 15.368 13.5355 14.4303C14.4732 13.4926 15 12.2209 15 10.8948C15 9.56869 14.4732 8.29692 13.5355 7.35924C12.5979 6.42156 11.3261 5.89478 10 5.89478ZM16.5 5.64478C16.5 5.31325 16.3683 4.99531 16.1339 4.76089C15.8995 4.52647 15.5815 4.39478 15.25 4.39478C14.9185 4.39478 14.6005 4.52647 14.3661 4.76089C14.1317 4.99531 14 5.31325 14 5.64478C14 5.9763 14.1317 6.29424 14.3661 6.52866C14.6005 6.76308 14.9185 6.89478 15.25 6.89478C15.5815 6.89478 15.8995 6.76308 16.1339 6.52866C16.3683 6.29424 16.5 5.9763 16.5 5.64478ZM10 7.89478C10.7956 7.89478 11.5587 8.21085 12.1213 8.77345C12.6839 9.33606 13 10.0991 13 10.8948C13 11.6904 12.6839 12.4535 12.1213 13.0161C11.5587 13.5787 10.7956 13.8948 10 13.8948C9.20435 13.8948 8.44129 13.5787 7.87868 13.0161C7.31607 12.4535 7 11.6904 7 10.8948C7 10.0991 7.31607 9.33606 7.87868 8.77345C8.44129 8.21085 9.20435 7.89478 10 7.89478Z" />
</svg>